<svg width="26" height="24" viewBox="0 0 26 24" fill="none" xmlns="http://www.w3.org/2000/svg">
<rect width="26" height="24" rx="5.55556" fill="white"/>
<rect x="0.347222" y="0.347222" width="25.3056" height="23.3056" rx="5.20833" stroke="#374957" stroke-opacity="0.2" stroke-width="0.694444"/>
<path d="M17.5001 12C17.4964 11.6054 17.3374 11.2282 17.0576 10.95L13.8401 7.72499C13.6995 7.5853 13.5095 7.5069 13.3113 7.5069C13.1132 7.5069 12.9231 7.5853 12.7826 7.72499C12.7123 7.79471 12.6565 7.87766 12.6184 7.96906C12.5803 8.06045 12.5607 8.15848 12.5607 8.25749C12.5607 8.3565 12.5803 8.45453 12.6184 8.54592C12.6565 8.63732 12.7123 8.72027 12.7826 8.78999L15.2501 11.25H7.75006C7.55115 11.25 7.36038 11.329 7.21973 11.4697C7.07908 11.6103 7.00006 11.8011 7.00006 12C7.00006 12.1989 7.07908 12.3897 7.21973 12.5303C7.36038 12.671 7.55115 12.75 7.75006 12.75H15.2501L12.7826 15.2175C12.6413 15.3577 12.5616 15.5483 12.5609 15.7473C12.5602 15.9464 12.6386 16.1375 12.7788 16.2787C12.919 16.42 13.1096 16.4997 13.3087 16.5004C13.5077 16.5011 13.6988 16.4227 13.8401 16.2825L17.0576 13.0575C17.3393 12.7775 17.4984 12.3972 17.5001 12Z" fill="#202727"/>
</svg>
