<svg width="29" height="28" viewBox="0 0 29 28" fill="none" xmlns="http://www.w3.org/2000/svg">
<path d="M22.6911 12.972H11.2531L15.0162 9.2089C15.1234 9.10257 15.2085 8.97606 15.2666 8.83668C15.3246 8.6973 15.3545 8.5478 15.3545 8.39681C15.3545 8.24581 15.3246 8.09631 15.2666 7.95693C15.2085 7.81755 15.1234 7.69104 15.0162 7.58471C14.8019 7.37168 14.512 7.25211 14.2098 7.25211C13.9077 7.25211 13.6178 7.37168 13.4035 7.58471L8.49659 12.503C8.06699 12.9301 7.8243 13.51 7.82175 14.1158C7.82731 14.7175 8.06977 15.2929 8.49659 15.7171L13.4035 20.6354C13.5101 20.7413 13.6366 20.8251 13.7756 20.8822C13.9147 20.9392 14.0636 20.9683 14.2139 20.9677C14.3642 20.9672 14.5129 20.9371 14.6515 20.8791C14.7902 20.8211 14.916 20.7363 15.0219 20.6297C15.1278 20.523 15.2117 20.3966 15.2687 20.2575C15.3257 20.1185 15.3548 19.9695 15.3543 19.8193C15.3537 19.669 15.3236 19.5203 15.2656 19.3816C15.2076 19.243 15.1229 19.1171 15.0162 19.0112L11.2531 15.2596H22.6911C22.9944 15.2596 23.2854 15.1391 23.4999 14.9246C23.7144 14.7101 23.8349 14.4191 23.8349 14.1158C23.8349 13.8124 23.7144 13.5215 23.4999 13.307C23.2854 13.0925 22.9944 12.972 22.6911 12.972Z" fill="black"/>
</svg>
